<?xml version="1.0" encoding="UTF-8"?>
<svg version="1.1" xmlns="http://www.w3.org/2000/svg" width="1080" height="1080">
<path d="M0 0 C14.54504198 10.88453975 20.05348513 25.02037913 22.91262603 42.48617792 C23.57533792 47.5092399 23.6130631 52.46319107 23.58425903 57.52313232 C23.58682231 59.20460133 23.58682231 59.20460133 23.58943737 60.92003942 C23.59270748 64.64174688 23.58176959 68.36327034 23.57080078 72.08496094 C23.57023613 74.76650393 23.57046641 77.44803598 23.57168579 80.12957764 C23.57273012 85.88505678 23.56650104 91.64049028 23.55521011 97.39595795 C23.53889642 105.71720096 23.53374113 114.0384221 23.53123413 122.35967937 C23.5268662 135.86317113 23.51358166 149.3666386 23.49462891 162.87011719 C23.4762467 175.98079304 23.46210167 189.09146228 23.45361328 202.20214844 C23.45308783 203.01145855 23.45256239 203.82076867 23.45202102 204.65460333 C23.44941078 208.71502306 23.4468834 212.77544283 23.44439721 216.83586264 C23.42369281 250.47522884 23.3879382 284.11456286 23.34375 317.75390625 C35.22375 317.75390625 47.10375 317.75390625 59.34375 317.75390625 C59.67375 313.46390625 60.00375 309.17390625 60.34375 304.75390625 C67.3275787 260.29435389 87.35202221 213.54728848 123.34375 184.75390625 C121.36126015 181.748916 119.36174151 178.7790335 117.265625 175.8515625 C98.81123441 150.06188356 87.16930061 117.6511085 91.875 85.5703125 C94.67603225 70.69744017 99.88682577 56.28252367 112.34375 46.75390625 C124.8751899 39.46588462 138.22184692 37.23217398 152.5390625 40.58984375 C179.20073643 48.88334984 198.92536635 70.61170979 211.58032227 94.69189453 C218.78755387 108.91189617 223.20340339 123.15953545 226.34375 138.75390625 C227.28814941 138.61388184 228.23254883 138.47385742 229.20556641 138.32958984 C242.03835958 136.55691289 254.77948217 136.35929231 267.71875 136.37890625 C268.8195993 136.37812073 269.92044861 136.37733521 271.05465698 136.37652588 C287.81531511 136.39084745 303.92096988 137.16071242 320.34375 140.75390625 C321.22401855 140.94500977 322.10428711 141.13611328 323.01123047 141.33300781 C325.12400011 141.79795654 327.2342 142.27456121 329.34375 142.75390625 C329.43011719 142.13386719 329.51648438 141.51382813 329.60546875 140.875 C334.28736958 111.36613881 351.96788148 82.27698253 375.34375 63.75390625 C390.02661924 53.4450438 406.17739058 46.41305441 424.35546875 49.21875 C436.01643662 51.74205803 445.37249722 57.59193191 452.1875 67.41015625 C464.23294986 86.80537213 465.47751776 112.0743177 460.71875 134.06640625 C454.87043665 158.71835874 442.77900723 180.47636606 425.34375 198.75390625 C426.66612049 202.54160063 428.28438865 205.10979318 430.90625 208.12890625 C453.60627146 235.87793791 466.44427069 273.96949425 466.63891602 309.50219727 C466.65034522 310.94565708 466.67065056 312.38907773 466.70043945 313.83227539 C467.03677313 330.19988791 464.53722244 346.7315057 453.34375 359.50390625 C445.6696411 366.47733564 435.74488559 369.92799017 425.90625 372.56640625 C424.81812012 372.85862061 424.81812012 372.85862061 423.70800781 373.15673828 C408.62523439 376.89613274 393.69225931 377.03451481 378.25219727 376.98095703 C375.95444748 376.98039188 373.65669733 376.9807115 371.35894775 376.98184204 C365.16372043 376.98241251 358.96857159 376.97070803 352.7733624 376.95669413 C346.28315209 376.94413545 339.7929397 376.94301223 333.30271912 376.94064331 C322.42307141 376.93514661 311.54345247 376.92268037 300.66381836 376.90478516 C289.46525209 376.88638468 278.2666936 376.87224866 267.06811523 376.86376953 C266.37608612 376.86324408 265.684057 376.86271864 264.9710573 376.86217727 C261.49882827 376.85956691 258.02659917 376.85703956 254.55437005 376.85455346 C225.81747784 376.83387088 197.08061461 376.79853911 168.34375 376.75390625 C168.65035125 380.2914807 168.96284286 383.82851145 169.27636719 387.36547852 C169.3627243 388.3627018 169.44908142 389.35992508 169.53805542 390.38736725 C170.12326486 396.94736807 170.92145577 403.309178 172.59375 409.69140625 C172.81063477 410.55145264 173.02751953 411.41149902 173.25097656 412.29760742 C178.06082761 430.65611783 186.53316739 447.67380644 199.34375 461.75390625 C199.96636719 462.45773437 200.58898437 463.1615625 201.23046875 463.88671875 C216.18737975 479.8783846 239.78307605 490.75875105 261.64501953 491.9309082 C308.62752508 492.73476702 341.41775858 477.36881995 376.01953125 445.86328125 C378.69557666 443.43460138 381.42037692 441.06782496 384.15625 438.70703125 C385.8550795 437.1902192 387.51424421 435.62893126 389.15625 434.05078125 C401.53039737 422.18341128 411.30889922 419.24235915 428.109375 419.4765625 C439.06621395 419.86732273 446.87615973 424.43819348 454.59375 431.94140625 C460.82271254 441.95223891 461.91017807 452.52036873 459.71875 464.0390625 C450.91413536 495.75925899 425.38746214 519.44231622 397.67529297 535.45214844 C361.00324549 555.92705495 321.37484 564.14970069 279.71508789 564.06958008 C276.31037935 564.06643317 272.90655431 564.08992775 269.50195312 564.11523438 C246.27285476 564.18272 223.87665936 561.36784905 201.34375 555.75390625 C200.5815918 555.56602539 199.81943359 555.37814453 199.03417969 555.18457031 C168.7818241 547.53627311 141.2299009 531.76549393 118.34375 510.75390625 C117.5710376 510.04911133 117.5710376 510.04911133 116.78271484 509.33007812 C84.76183589 479.76601781 67.98874714 438.87651478 60.34375 396.75390625 C60.13621094 395.70460938 59.92867187 394.6553125 59.71484375 393.57421875 C59.24404758 389.99616789 59.34375 386.36279763 59.34375 382.75390625 C47.13375 382.75390625 34.92375 382.75390625 22.34375 382.75390625 C22.26125 385.39390625 22.17875 388.03390625 22.09375 390.75390625 C19.88810618 437.37990473 2.42995716 480.87644779 -31.68896484 512.97753906 C-62.23023772 540.55489094 -106.2543419 553.77954164 -146.76171875 553.95703125 C-147.80282303 553.96273132 -148.84392731 553.9684314 -149.9165802 553.9743042 C-152.11421715 553.98370059 -154.31186786 553.99026669 -156.50952148 553.99414062 C-159.78981862 554.00374829 -163.06946135 554.03478322 -166.34960938 554.06640625 C-211.83721107 554.2951486 -254.98763087 543.4723839 -288.65625 511.75390625 C-289.32011719 511.15449219 -289.98398437 510.55507813 -290.66796875 509.9375 C-301.14759841 500.095576 -309.07207355 487.4290371 -315.65625 474.75390625 C-315.98189941 474.13386719 -316.30754883 473.51382812 -316.64306641 472.875 C-326.73884045 453.38242799 -332.75984764 432.28621748 -336.65625 410.75390625 C-336.85323486 409.68100342 -336.85323486 409.68100342 -337.05419922 408.58642578 C-340.50024215 388.9396312 -341.79809539 365.17940335 -330.65625 347.75390625 C-323.47858905 337.82944111 -312.99682062 330.40738831 -300.83886719 328.05126953 C-286.36455946 326.07926653 -270.6331102 326.00275596 -258.28125 334.56640625 C-257.04765963 335.59947473 -255.83723779 336.66109175 -254.65625 337.75390625 C-254.14835937 338.20894531 -253.64046875 338.66398437 -253.1171875 339.1328125 C-241.93424529 350.58486294 -238.28502149 367.7693899 -234.65625 382.75390625 C-225.46125612 424.87359053 -225.46125612 424.87359053 -198.28125 456.75390625 C-181.5105728 466.63318449 -157.75586286 467.76918233 -139.15625 463.12890625 C-123.54071965 458.0070123 -110.77680649 447.93747166 -102.84765625 433.44921875 C-91.15794981 410.27000422 -88.49590984 384.47991841 -88.51821899 358.84611511 C-88.51579389 357.49336313 -88.51292947 356.14061187 -88.50966966 354.78786165 C-88.50199788 351.10840295 -88.50030167 347.428963 -88.49961853 343.74949729 C-88.49776405 339.76641846 -88.49014909 335.78335022 -88.48313904 331.80027771 C-88.4716579 324.90825218 -88.46339047 318.01622904 -88.45701981 311.12419701 C-88.44664816 300.21814256 -88.42607374 289.31211808 -88.40390015 278.40608215 C-88.39642201 274.66722021 -88.38900806 270.92835815 -88.38161278 267.18949604 C-88.37883693 265.78822729 -88.37883693 265.78822729 -88.376005 264.35865008 C-88.35511241 253.74422991 -88.33626702 243.12980646 -88.31835938 232.51538086 C-88.31672119 231.5460077 -88.31508301 230.57663454 -88.31339519 229.57788644 C-88.28711026 213.86940115 -88.2684632 198.16091352 -88.25176747 182.45241555 C-88.23431585 166.29272193 -88.20544127 150.13307411 -88.1668781 133.9734171 C-88.14355505 124.02348561 -88.12949049 114.07362877 -88.12755047 104.12366972 C-88.12543285 97.29993237 -88.11243507 90.4762692 -88.09107114 83.6525652 C-88.07910768 79.72345736 -88.07184674 75.79449671 -88.07778358 71.8653717 C-88.1410925 23.42177374 -88.1410925 23.42177374 -71.6953125 5.6328125 C-53.02715441 -12.19291968 -21.43393501 -13.88334427 0 0 Z M233.34375 214.75390625 C232.26738281 215.11613281 231.19101562 215.47835937 230.08203125 215.8515625 C207.39690135 224.42020952 190.88012148 242.96831541 180.82739258 264.46142578 C173.68328267 280.51390531 168.34375 299.08381538 168.34375 316.75390625 C232.03375 316.75390625 295.72375 316.75390625 361.34375 316.75390625 C361.45705276 308.97132856 361.45705276 308.97132856 360.64453125 301.52734375 C360.4129834 300.20996216 360.4129834 300.20996216 360.17675781 298.8659668 C360.00499023 297.96273682 359.83322266 297.05950684 359.65625 296.12890625 C359.47545898 295.16960205 359.29466797 294.21029785 359.10839844 293.22192383 C353.99444446 267.12725491 343.00508843 241.51154377 320.21166992 226.11083984 C295.16776743 209.88902877 261.85882797 204.99285263 233.34375 214.75390625 Z " fill="#FF768B" transform="translate(456.65625,315.24609375)"/>
<path d="M0 0 C9.69256513 7.48222095 9.69256513 7.48222095 12 13 C12.66 13 13.32 13 14 13 C14.268125 12.41089844 14.53625 11.82179687 14.8125 11.21484375 C19.19853795 3.03430587 27.49745474 -1.16581825 36 -4 C48.84441356 -4.88934078 58.6491925 -3.5815524 68.89453125 4.88671875 C72.76157222 8.76810866 75.45338081 13.1759165 78 18 C78.36222656 18.68449219 78.72445312 19.36898437 79.09765625 20.07421875 C83.07975179 29.50159843 82.36957604 42.42652664 79 51.875 C73.72513418 63.61820687 65.83599827 72.85076102 57 82 C56.34386719 82.70769531 55.68773437 83.41539062 55.01171875 84.14453125 C46.00793965 93.61103133 26.38724636 112.49288886 13.25390625 114.3984375 C9.04395962 113.88293383 6.3074116 112.02841972 2.9375 109.625 C2.28483154 109.17310303 1.63216309 108.72120605 0.9597168 108.25561523 C-1.04174314 106.85670365 -3.02369692 105.43418871 -5 104 C-5.58297852 103.57831543 -6.16595703 103.15663086 -6.76660156 102.72216797 C-15.02606447 96.68973302 -22.60213086 90.05236426 -30 83 C-30.8765625 82.18789062 -31.753125 81.37578125 -32.65625 80.5390625 C-44.15510052 69.57256617 -54.89547177 55.23830051 -55.29272461 38.80664062 C-55.40026094 25.9235223 -52.82060027 15.86227116 -44 6 C-40.85709637 3.27751741 -37.6026579 1.06851171 -34 -1 C-33.08154297 -1.54140625 -33.08154297 -1.54140625 -32.14453125 -2.09375 C-22.84535541 -6.52779411 -8.55134405 -5.42736819 0 0 Z " fill="#FF768B" transform="translate(412,170)"/>
</svg>
