<?xml version="1.0" encoding="UTF-8"?>
<svg version="1.1" xmlns="http://www.w3.org/2000/svg" width="9550" height="1738">
<path d="M0 0 C3.62827439 0.01710682 7.25588877 0.00687474 10.88414097 -0.01031399 C37.20007781 -0.11589569 63.27606421 1.61072759 89.22583008 6.20361328 C89.96661804 6.33117004 90.70740601 6.45872681 91.47064209 6.59014893 C141.40021717 15.19860511 188.93028658 32.13972125 231.78833008 59.39111328 C232.77784668 60.01832275 232.77784668 60.01832275 233.78735352 60.65820312 C250.00936264 71.02110613 265.44315555 82.5581193 279.78833008 95.39111328 C280.53187744 96.04853516 281.2754248 96.70595703 282.04150391 97.38330078 C288.34038908 102.98835093 294.38721994 108.80688492 300.35083008 114.76611328 C301.67244141 116.06935547 301.67244141 116.06935547 303.02075195 117.39892578 C309.04950609 123.41433213 314.50104286 129.71958446 319.78833008 136.39111328 C320.93769833 137.80417582 322.08740901 139.21695993 323.23754883 140.62939453 C349.39508831 173.30844628 368.73601237 211.71221344 381.78833008 251.39111328 C381.82273193 250.61848145 381.85713379 249.84584961 381.89257812 249.04980469 C385.01356286 183.50428652 410.88755264 127.27027029 458.78833008 82.39111328 C462.34141868 79.22475541 465.99919721 76.2693969 469.78833008 73.39111328 C470.32329102 72.97974121 470.85825195 72.56836914 471.40942383 72.14453125 C535.56867683 22.98850493 617.06903243 1.41417202 697.13989258 1.18798828 C698.67737862 1.18101148 700.21486438 1.1739705 701.75234985 1.16687012 C706.63934688 1.14758493 711.52629915 1.14269476 716.41333008 1.14111328 C717.24414597 1.14052414 718.07496185 1.139935 718.93095398 1.139328 C743.34960565 1.1270931 767.52012495 1.42393352 791.78833008 4.39111328 C794.32738468 4.67243454 796.86644719 4.9536845 799.40551758 5.23486328 C852.12292455 11.39960501 905.83987806 25.28212705 952.78833008 50.39111328 C953.50682129 50.77235352 954.2253125 51.15359375 954.96557617 51.54638672 C976.01338477 62.77369403 995.99765511 76.18987794 1013.17944336 92.83349609 C1014.33352104 93.9507974 1015.49413579 95.06136156 1016.65893555 96.16748047 C1042.37945717 120.63870167 1065.76675965 154.80376253 1067.12426758 191.52001953 C1067.46868255 215.81250607 1063.73086495 236.96691186 1046.78833008 255.39111328 C1046.0896582 256.16970703 1045.39098633 256.94830078 1044.67114258 257.75048828 C1027.12503622 276.35810286 1001.81098321 282.60133541 977.08520508 283.61376953 C944.58835764 284.46589582 921.36567111 271.60966578 898.18774414 249.72021484 C893.52560872 245.29232489 889.11674882 240.74059963 884.92114258 235.86767578 C883.23923251 233.91468863 881.54558102 231.97442863 879.84301758 230.03955078 C874.44438126 223.884878 869.16178094 217.68911684 864.16333008 211.20361328 C859.81296723 205.56037152 855.178348 200.2981174 850.29614258 195.10986328 C848.52082295 193.1852177 846.83898097 191.26719154 845.18286133 189.24658203 C820.10652971 159.34315885 780.18066722 144.2580765 742.46083069 140.6025238 C738.19553291 140.26511365 733.94044781 140.1899988 729.66333008 140.15283203 C728.72637299 140.14303818 727.78941589 140.13324432 726.82406616 140.12315369 C681.34557133 139.74541595 636.86810037 145.74529851 602.13208008 178.06298828 C589.97639091 190.13763953 582.74569499 204.96411456 582.35693359 222.19238281 C582.31393819 241.6435039 587.62830909 257.57827383 601.28442383 272.02001953 C621.78817747 291.43621058 650.28083351 303.22071215 676.83520508 311.69970703 C678.6764093 312.2884108 678.6764093 312.2884108 680.55480957 312.88900757 C692.71834785 316.74131609 704.96884261 320.20194472 717.28833008 323.51611328 C718.48168976 323.83971832 719.67504944 324.16332336 720.90457153 324.49673462 C738.39641956 329.23285272 755.94744116 333.71367632 773.53442383 338.08251953 C774.52642918 338.32918617 775.51843452 338.57585281 776.54050064 338.8299942 C786.47816686 341.30038712 796.41789575 343.76171019 806.36601448 346.18969727 C872.1165206 362.25639463 938.23886424 381.56407968 996.78833008 416.39111328 C997.8967627 417.04394287 997.8967627 417.04394287 999.02758789 417.70996094 C1027.56718559 434.60470636 1054.11121872 456.5677537 1073.78833008 483.39111328 C1074.40708008 484.21482422 1075.02583008 485.03853516 1075.66333008 485.88720703 C1085.5040546 499.3954238 1092.69865254 513.88294484 1098.78833008 529.39111328 C1099.19051758 530.39658203 1099.59270508 531.40205078 1100.00708008 532.43798828 C1100.26489258 533.08251953 1100.52270508 533.72705078 1100.78833008 534.39111328 C1101.06394775 533.83875 1101.33956543 533.28638672 1101.62353516 532.71728516 C1109.84143999 516.35940243 1118.97437444 501.40948456 1130.78833008 487.39111328 C1131.23821289 486.85244629 1131.6880957 486.3137793 1132.15161133 485.75878906 C1140.73599206 475.49547107 1149.4976382 466.01729641 1159.98364258 457.63720703 C1161.8104327 456.17424837 1163.61899956 454.68814373 1165.40551758 453.17626953 C1202.2672569 422.05708604 1248.7145656 405.78663114 1295.13208008 395.38720703 C1295.97762514 395.197115 1296.8231702 395.00702297 1297.69433784 394.81117058 C1319.09699482 390.01030367 1340.58722796 385.63261247 1362.07590294 381.2366972 C1447.87270325 363.68421426 1533.65373896 345.7491355 1625.73461914 319.74633789 C1626.94690689 319.4015036 1628.15919464 319.05666931 1629.40821838 318.7013855 C1631.64532227 318.06350568 1633.88137496 317.42192098 1636.11607361 316.77566528 C1642.29691568 315.00901728 1648.46243326 313.53845437 1654.78833008 312.39111328 C1649.26273449 239.28486272 1649.26273449 239.28486272 1611.17456055 178.97705078 C1594.93884278 165.69630005 1574.6726247 159.13105437 1554.35083008 155.14111328 C1553.5907666 154.99005127 1552.83070313 154.83898926 1552.04760742 154.68334961 C1534.36330486 151.4675272 1516.59448505 151.04440971 1498.66503906 151.07543945 C1494.88747801 151.07858279 1491.11071605 151.05510427 1487.33325195 151.02978516 C1427.98272505 150.87526981 1376.46883995 163.25449674 1332.78833008 204.39111328 C1332.12833008 205.00857422 1331.46833008 205.62603516 1330.78833008 206.26220703 C1316.4191887 220.13241989 1305.36914649 237.68079418 1294.81347656 254.48681641 C1290.46634048 261.38976975 1285.88533827 268.04275525 1281.06420898 274.61914062 C1279.64357941 276.59214665 1278.26683764 278.59174349 1276.89379883 280.59814453 C1265.53000272 297.16017526 1256.48253875 308.34231545 1236.02661133 312.81298828 C1208.00182097 317.81620779 1180.17377045 314.54470574 1155.78833008 299.39111328 C1151.93117874 296.58545274 1148.33582927 293.57662276 1144.78833008 290.39111328 C1144.08063477 289.77751953 1143.37293945 289.16392578 1142.64379883 288.53173828 C1128.89155706 275.83736126 1120.90805163 256.90748427 1119.78833008 238.39111328 C1117.87309642 189.75578573 1139.17246034 142.77388199 1171.78833008 107.39111328 C1181.25632092 97.33437972 1190.95541361 87.75246833 1202.12915039 79.6015625 C1203.7861184 78.3927268 1205.4241151 77.16110052 1207.06176758 75.92626953 C1278.35523139 22.87797998 1374.12908858 1.25698989 1474.79223633 0.22314453 C1476.68668134 0.21991497 1478.58112613 0.21654977 1480.47557068 0.21305847 C1484.42968317 0.20711545 1488.38377399 0.20521325 1492.33789062 0.20581055 C1496.31970817 0.2058913 1500.30140943 0.19902229 1504.28320312 0.18530273 C1528.20445538 0.1042085 1551.93889829 0.41402759 1575.78833008 2.39111328 C1576.72750275 2.46681549 1577.66667542 2.5425177 1578.63430786 2.62051392 C1583.94399651 3.05603268 1589.2419731 3.56667126 1594.53833008 4.14111328 C1595.31007568 4.22348236 1596.08182129 4.30585144 1596.87695312 4.39071655 C1644.24633213 9.50334181 1692.94003125 18.74020112 1735.78833008 40.39111328 C1736.88516113 40.93348633 1736.88516113 40.93348633 1738.00415039 41.48681641 C1758.80506127 51.81893771 1776.99916544 65.41313815 1793.78833008 81.39111328 C1794.49344727 82.04337891 1795.19856445 82.69564453 1795.92504883 83.36767578 C1838.48688167 123.9438653 1854.41124097 187.2362746 1861.78833008 243.39111328 C1861.92867676 244.45249512 1862.06902344 245.51387695 1862.21362305 246.60742188 C1867.07346117 284.50729018 1867.09942832 322.71270718 1866.98556519 360.85633469 C1866.97230334 365.84194254 1866.96695226 370.82754926 1866.96112633 375.81317043 C1866.90689032 418.99764227 1866.57812987 462.18009318 1866.14453125 505.36230469 C1865.93744867 526.08132185 1865.74028912 546.79969064 1865.71737671 567.51988411 C1865.71524225 569.42989308 1865.71208134 571.33990126 1865.70776367 573.24990654 C1865.61606216 619.55008241 1874.84314835 663.32838305 1887.67895508 707.61376953 C1911.75892687 790.69668589 1911.75892687 790.69668589 1895.71801758 821.16064453 C1892.84300942 825.97366426 1889.46491261 830.17477714 1885.78833008 834.39111328 C1884.95375307 835.45263667 1884.12023927 836.51499784 1883.28833008 837.57861328 C1869.83526832 852.71330775 1851.89167952 863.23093998 1832.78833008 869.39111328 C1831.7493457 869.73400391 1830.71036133 870.07689453 1829.63989258 870.43017578 C1821.39487155 872.65238548 1813.16068589 872.69635391 1804.66333008 872.76611328 C1802.8936084 872.78714111 1802.8936084 872.78714111 1801.08813477 872.80859375 C1790.12130931 872.74884156 1780.28393904 870.61410577 1770.41333008 865.82861328 C1769.69781982 865.48564209 1768.98230957 865.1426709 1768.24511719 864.78930664 C1756.81050367 859.11318629 1746.93873951 851.2438432 1737.78833008 842.39111328 C1737.1819873 841.80523438 1736.57564453 841.21935547 1735.95092773 840.61572266 C1727.68830441 832.59500047 1719.87069938 824.48796688 1712.78833008 815.39111328 C1711.88618372 814.28725522 1710.98104973 813.18583442 1710.07348633 812.08642578 C1697.19101409 796.40397668 1686.06566806 779.49961094 1675.11157227 762.43896484 C1673.3655478 759.7368148 1671.58276965 757.06130805 1669.78833008 754.39111328 C1664.47955698 757.26183405 1659.83303293 760.53391032 1655.10083008 764.26611328 C1588.14216484 816.2050425 1510.21743455 855.86000786 1425.97583008 868.64111328 C1424.98921387 868.79217529 1424.00259766 868.9432373 1422.98608398 869.09887695 C1403.20287235 871.92527778 1383.49621161 872.74035331 1363.52929688 872.70678711 C1359.62251734 872.7036308 1355.71650107 872.72718319 1351.80981445 872.75244141 C1329.58067983 872.80912521 1307.45588625 871.28848239 1285.66333008 866.70361328 C1283.81360596 866.32124512 1283.81360596 866.32124512 1281.92651367 865.93115234 C1224.97386307 853.71293664 1169.14099109 823.73916445 1132.78833008 777.39111328 C1132.02133789 776.45267578 1131.2543457 775.51423828 1130.46411133 774.54736328 C1112.41174579 751.98917382 1099.50105489 725.84846789 1090.78833008 698.39111328 C1090.39154053 699.24116943 1089.99475098 700.09122559 1089.5859375 700.96704102 C1074.54402339 733.03663629 1074.54402339 733.03663629 1064.78833008 746.39111328 C1064.37808594 746.95846191 1063.9678418 747.52581055 1063.54516602 748.11035156 C1060.73679923 751.9604601 1057.80588958 755.70261164 1054.78833008 759.39111328 C1054.32845703 759.9539502 1053.86858398 760.51678711 1053.39477539 761.09667969 C1042.96430918 773.7622458 1031.75590985 785.30117059 1018.78833008 795.39111328 C1017.82926758 796.16712891 1016.87020508 796.94314453 1015.88208008 797.74267578 C943.54601421 855.28272818 841.71427418 872.43424572 739.1262207 872.78222656 C734.98504661 872.76510796 730.84445042 872.77535731 726.70329571 872.79254818 C709.38560235 872.85331952 692.18892611 872.43689877 674.92504883 871.01220703 C674.18126858 870.95102566 673.43748833 870.88984428 672.67116928 870.82680893 C591.62461601 863.99860851 502.31962498 838.58513147 441.78833008 781.39111328 C440.43903444 780.2188165 439.08499336 779.05195507 437.72583008 777.89111328 C420.54284436 762.84737478 407.02437306 744.16570924 395.78833008 724.39111328 C395.45236816 723.81490234 395.11640625 723.23869141 394.77026367 722.64501953 C388.07501385 711.12827581 383.43766121 698.84722982 378.78833008 686.39111328 C378.3990332 687.33728516 378.00973633 688.28345703 377.60864258 689.25830078 C368.09185829 711.94457099 355.15282501 732.0467165 338.78833008 750.39111328 C338.33022949 750.91092773 337.87212891 751.43074219 337.40014648 751.96630859 C325.59859387 765.31432813 312.65331493 777.39621041 298.43676758 788.13232422 C296.83751312 789.35355585 295.26547131 790.61016942 293.69458008 791.86767578 C275.73171153 806.15632121 255.39767568 817.41878511 234.79174805 827.41601562 C232.82788318 828.37186211 230.87263985 829.34388258 228.91723633 830.31689453 C171.15554511 858.66991041 104.41779294 872.43117308 40.24536133 872.59423828 C39.47444342 872.59706566 38.70352551 872.59989304 37.90924644 872.60280609 C33.80993707 872.61769427 29.71066178 872.62698274 25.61132812 872.63134766 C22.30847828 872.63568232 19.00589705 872.64939179 15.703125 872.67236328 C-61.26356533 873.19643484 -139.48038972 860.23264918 -208.3034668 824.37988281 C-210.25982556 823.36616058 -212.22699842 822.37602743 -214.19604492 821.38720703 C-232.7712591 811.94499055 -249.96843372 800.40795325 -266.21166992 787.39111328 C-267.22487305 786.59060547 -268.23807617 785.79009766 -269.28198242 784.96533203 C-275.22589593 780.19834726 -280.85005716 775.13446658 -286.43041992 769.95361328 C-288.71954214 767.84453438 -291.03642156 765.79132616 -293.39916992 763.76611328 C-300.58788407 757.51700285 -307.03022975 750.62108177 -313.21166992 743.39111328 C-314.4859082 741.95058594 -314.4859082 741.95058594 -315.78588867 740.48095703 C-373.48178236 674.90892819 -403.40198775 591.0635051 -415.46166992 396.64111328 C-411.20340858 335.04113596 -398.78103065 270.65643404 -370.21166992 215.39111328 C-371.38213867 215.57544922 -372.55260742 215.75978516 -373.75854492 215.94970703 C-391.80809806 218.16042136 -412.55812981 208.59635455 -429.58813477 203.47538757 C-449.60353697 197.41107448 -449.60353697 197.41107448 -469.89916992 192.39111328 C-470.73939697 192.20782471 -471.57962402 192.02453613 -472.4453125 191.83569336 C-485.22579906 189.2072083 -497.7740469 188.03802851 -510.7902832 188.07543945 C-513.07836576 188.0786018 -515.36515156 188.05501061 -517.65307617 188.02978516 C-531.1726831 187.97104046 -544.5117175 189.58422464 -557.33666992 194.07861328 C-558.07691406 194.33425049 -558.8171582 194.5898877 -559.57983398 194.85327148 C-590.0608925 205.80230268 -611.51342513 230.1983813 -625.40307617 258.84863281 C-653.27752793 318.81780193 -658.84224862 387.53767726 -662.33666992 452.70361328 C-662.37528137 453.4132724 -662.41389282 454.12293152 -662.45367432 454.85409546 C-662.74836533 460.36481746 -662.98314839 465.87730207 -663.21166992 471.39111328 C-663.25272102 472.34695155 -663.29377213 473.30278982 -663.3360672 474.28759289 C-664.44581369 501.05472228 -664.39483314 527.83107881 -664.44522809 554.6167159 C-664.4585179 561.46863822 -664.47884385 568.32053512 -664.49989391 575.17243735 C-664.53749014 587.41174472 -664.57253142 599.65105747 -664.60449219 611.89038086 C-664.60734293 612.98094047 -664.60734293 612.98094047 -664.61025126 614.09353159 C-664.63714101 624.43323965 -664.66102551 634.77295243 -664.68363626 645.11267064 C-664.68523356 645.84304548 -664.68683086 646.57342032 -664.68847656 647.32592773 C-664.69007003 648.05538301 -664.69166349 648.78483828 -664.69330525 649.53639825 C-664.72018808 661.75410097 -664.75461388 673.97176882 -664.79513031 686.18943387 C-664.81749825 693.01452006 -664.83623967 699.83957629 -664.84557915 706.66469383 C-664.85458233 713.07466486 -664.87264795 719.48454868 -664.8973465 725.89447784 C-664.90474488 728.22872158 -664.90889833 730.56297854 -664.90934181 732.89723396 C-664.92285208 772.27471491 -669.08974564 813.97222201 -698.21166992 843.39111328 C-721.78366489 866.4087411 -750.01967868 873.0531384 -782.18432617 872.67236328 C-803.63426908 872.27244492 -823.82936365 864.22887286 -840.21166992 850.39111328 C-841.00186523 849.74658203 -841.79206055 849.10205078 -842.60620117 848.43798828 C-867.13889279 827.57554186 -877.58298006 795.71739447 -880.21166992 764.39111328 C-880.34750906 760.6868991 -880.34962986 756.98672267 -880.34309769 753.28031158 C-880.34515032 752.18841587 -880.34720295 751.09652016 -880.34931779 749.9715367 C-880.35497417 746.31113188 -880.35353221 742.65076485 -880.35211182 738.99035645 C-880.35469625 736.33990861 -880.35767099 733.68946379 -880.36111522 731.0390172 C-880.3686783 724.51738475 -880.37088742 717.99576048 -880.37144427 711.4741241 C-880.37235962 703.6600562 -880.37903236 695.84599584 -880.3857911 688.03193119 C-880.40183809 669.14434113 -880.40775347 650.25675189 -880.41253985 631.36915624 C-880.41487769 622.42736375 -880.41848061 613.4855719 -880.42223522 604.54377991 C-880.43507128 573.914042 -880.44578907 543.28430444 -880.44923782 512.6545639 C-880.44945945 510.73233752 -880.44968124 508.81011115 -880.44990318 506.88788477 C-880.45012381 504.9610948 -880.4503443 503.03430483 -880.45056462 501.10751486 C-880.45100717 497.24224949 -880.45145428 493.37698412 -880.4519043 489.51171875 C-880.45201369 488.55336017 -880.45212308 487.59500158 -880.45223578 486.60760183 C-880.4558634 455.5588159 -880.47177202 424.51005336 -880.49509466 393.46127639 C-880.51972694 360.60869921 -880.5334123 327.75613539 -880.53460574 294.90354872 C-880.53477718 291.29236316 -880.53499261 287.68117761 -880.53524017 284.06999207 C-880.53529594 283.18086408 -880.53535171 282.2917361 -880.53540917 281.37566485 C-880.53655684 267.10535802 -880.54755488 252.8350753 -880.56212723 238.5647766 C-880.57654053 224.20101379 -880.5797021 209.83728167 -880.57168725 195.4735136 C-880.56725324 186.95591955 -880.5710015 178.43842503 -880.58692576 169.92084418 C-880.59675683 164.21166672 -880.59542104 158.50255811 -880.58548953 152.79338111 C-880.58015516 149.55315818 -880.58090947 146.31315948 -880.59199825 143.07294589 C-880.72484276 101.59265654 -875.18086677 56.06305377 -844.87963867 25.00048828 C-826.27263327 7.32533614 -802.45215859 0.77706053 -777.35717773 1 C-775.21167504 1.01611324 -773.0680547 1.00001681 -770.92260742 0.98095703 C-747.61534119 0.94374939 -723.91701081 7.38380269 -706.64916992 23.76611328 C-680.21600968 52.23259354 -674.27368977 93.11196502 -672.21166992 130.39111328 C-668.73079392 126.2926625 -666.06196409 121.93744102 -663.33666992 117.32861328 C-651.12667276 97.03585346 -636.88714521 78.12148261 -621.21166992 60.39111328 C-620.7244043 59.8392334 -620.23713867 59.28735352 -619.73510742 58.71875 C-608.17352837 45.70810941 -595.84952604 33.89054561 -581.21166992 24.39111328 C-579.60098633 23.34503906 -579.60098633 23.34503906 -577.95776367 22.27783203 C-561.53393281 12.2916775 -543.05380071 6.69312788 -524.21166992 3.39111328 C-523.15238281 3.20492432 -522.0930957 3.01873535 -521.00170898 2.8269043 C-509.58650756 1.06026598 -498.23911094 1.03510253 -486.71166992 1.07861328 C-485.68810394 1.08076843 -484.66453796 1.08292358 -483.60995483 1.08514404 C-468.94154169 1.13478334 -454.63150183 1.47730193 -440.21166992 4.39111328 C-439.17204102 4.58979004 -438.13241211 4.7884668 -437.0612793 4.99316406 C-390.35018828 14.04123523 -334.98485102 33.96643489 -306.21166992 74.39111328 C-299.48164173 84.46132151 -295.66800482 94.8438126 -292.21166992 106.39111328 C-291.3202832 105.46492187 -291.3202832 105.46492187 -290.41088867 104.52001953 C-284.34405956 98.32109772 -278.04729477 92.73296738 -271.21166992 87.39111328 C-270.59936523 86.90771484 -269.98706055 86.42431641 -269.35620117 85.92626953 C-252.95420566 73.00446168 -235.8346058 61.81548302 -217.57006836 51.70166016 C-215.54750464 50.57773448 -213.53800337 49.43477889 -211.53198242 48.28173828 C-148.12017085 12.84141865 -71.92674281 -0.34154924 0 0 Z M-122.01635742 193.34814453 C-124.05325995 195.24369617 -126.14537545 197.03792146 -128.27416992 198.82861328 C-173.91474424 239.01413888 -189.68107259 306.62396987 -196.21166992 364.39111328 C-196.21166992 365.38111328 -196.21166992 366.37111328 -196.21166992 367.39111328 C-68.50166992 367.39111328 59.20833008 367.39111328 190.78833008 367.39111328 C190.78833008 358.73881843 190.32453104 350.99666923 189.16333008 342.51611328 C188.89601074 340.5607666 188.89601074 340.5607666 188.62329102 338.56591797 C180.43479414 280.28495183 159.87614419 221.78719314 111.42114258 185.05517578 C89.87545313 169.08303721 65.88180659 159.24828038 39.78833008 153.39111328 C38.99378418 153.20887207 38.19923828 153.02663086 37.38061523 152.83886719 C24.31866557 150.00299347 11.02851863 150.08351594 -2.27416992 150.01611328 C-3.15819489 150.00807678 -4.04221985 150.00004028 -4.95303345 149.99176025 C-48.09846894 149.69470562 -90.17125231 163.65757623 -122.01635742 193.34814453 Z M397.78833008 329.39111328 C397.84947998 330.86028198 397.84947998 330.86028198 397.91186523 332.35913086 C401.39370146 418.79204195 401.39370146 418.79204195 373.47583008 449.76611328 C341.76651414 483.16319188 284.47081362 487.67171219 241.17640686 488.94078064 C240.47556349 488.96166561 239.77472012 488.98255058 239.05263907 489.00406843 C220.5495014 489.54364885 202.04425985 489.5660109 183.53465188 489.59172189 C178.41656656 489.59988446 173.29849507 489.61352492 168.18041992 489.62643433 C159.35433331 489.64797744 150.52824515 489.66620033 141.70214653 489.68203926 C128.94175621 489.70494349 116.18138134 489.73305536 103.4210043 489.76235854 C82.70824804 489.80978588 61.99548537 489.85311574 41.28271484 489.89379883 C21.18570459 489.9332814 1.08869997 489.97473724 -19.00830078 490.01879883 C-20.25118205 490.0215231 -21.49406333 490.02424737 -22.77460767 490.0270542 C-29.01100266 490.04073577 -35.24739756 490.05445563 -41.48379242 490.06819451 C-93.05973976 490.1817678 -144.63569937 490.28866186 -196.21166992 490.39111328 C-196.21698037 492.47634103 -196.2207734 494.56157268 -196.22392273 496.64680481 C-196.22619716 497.80801755 -196.22847158 498.96923029 -196.23081493 500.16563129 C-196.19517563 506.17001207 -195.60798692 512.10691267 -195.02416992 518.07861328 C-194.92671982 519.07849274 -194.92671982 519.07849274 -194.82730103 520.09857178 C-192.75344921 540.99077739 -188.67980885 561.404885 -182.21166992 581.39111328 C-181.83751953 582.55054443 -181.83751953 582.55054443 -181.45581055 583.73339844 C-170.28388735 617.58662329 -151.91324196 647.81110697 -127.21166992 673.39111328 C-126.50139648 674.16455078 -125.79112305 674.93798828 -125.05932617 675.73486328 C-114.57498501 686.8430328 -101.46745908 695.91041962 -88.21166992 703.39111328 C-87.22021973 703.96442383 -87.22021973 703.96442383 -86.20874023 704.54931641 C-66.36928804 715.94548785 -44.74910927 723.48287549 -22.21166992 727.39111328 C-20.62273926 727.66822144 -20.62273926 727.66822144 -19.00170898 727.95092773 C-7.74584419 729.68681097 3.42209262 729.74653137 14.78833008 729.70361328 C16.28567184 729.70087906 16.28567184 729.70087906 17.81326294 729.6980896 C32.33101433 729.65340168 46.51315684 729.25970031 60.78833008 726.39111328 C61.6674707 726.22482422 62.54661133 726.05853516 63.45239258 725.88720703 C102.54541712 718.3693177 135.92269401 700.72597304 167.78833008 677.39111328 C168.46734375 676.89756348 169.14635742 676.40401367 169.84594727 675.89550781 C178.94142344 669.26905018 187.6184705 662.29446083 196.0793457 654.87792969 C197.77657622 653.40133914 199.48965596 651.94590433 201.21020508 650.49658203 C208.37953659 644.44733163 215.30903687 638.19342152 222.1081543 631.72973633 C225.92821238 628.10250586 229.82382208 624.59275066 233.80151367 621.1394043 C237.07672751 618.2573932 240.24179962 615.26118205 243.41333008 612.26611328 C244.09991699 611.62230713 244.78650391 610.97850098 245.49389648 610.31518555 C248.87698235 607.14261836 252.24535377 603.95683717 255.58520508 600.73876953 C267.04744064 589.7632695 278.86904664 582.09653712 294.78833008 579.39111328 C295.43672852 579.27896484 296.08512695 579.16681641 296.75317383 579.05126953 C318.22790656 576.04233385 342.61549844 578.87263592 360.78833008 591.39111328 C367.70577991 596.79625496 373.65021185 602.55824663 377.78833008 610.39111328 C380.87258261 607.74206202 382.52226249 604.41561241 384.41333008 600.89111328 C394.93820397 581.9615546 411.18140397 568.33934606 431.78833008 561.39111328 C455.7564089 554.73021696 483.68366792 554.656767 505.85083008 567.07861328 C526.51773945 580.18286812 538.79579795 602.21632816 550.84344482 622.75210571 C556.0770073 631.65883736 561.48247694 640.20087331 567.78833008 648.39111328 C568.64150536 649.52890121 569.49435929 650.66693015 570.34692383 651.80517578 C577.23463648 660.88540762 584.85325306 669.2194768 592.78833008 677.39111328 C593.36437988 677.98762695 593.94042969 678.58414062 594.53393555 679.19873047 C598.28619852 683.02689125 602.17012902 686.49345114 606.41333008 689.76611328 C607.0145166 690.23307617 607.61570313 690.70003906 608.23510742 691.18115234 C614.26243209 695.82192418 620.4341648 700.20568703 626.78833008 704.39111328 C628.07610352 705.26316406 628.07610352 705.26316406 629.38989258 706.15283203 C646.93230786 717.25267887 667.65082831 723.1595863 687.78833008 727.39111328 C688.57143555 727.55691895 689.35454102 727.72272461 690.16137695 727.89355469 C708.92760182 731.76232248 727.8147931 732.74516873 746.93310547 732.70678711 C750.21916725 732.7036197 753.50433115 732.72722699 756.7902832 732.75244141 C800.35842699 732.88334648 842.81964946 721.01245487 874.78833008 690.39111328 C875.67520508 689.54548828 876.56208008 688.69986328 877.47583008 687.82861328 C878.23895508 687.02423828 879.00208008 686.21986328 879.78833008 685.39111328 C880.58303711 684.57126953 880.58303711 684.57126953 881.39379883 683.73486328 C896.08148908 667.91236252 899.50127556 649.89548865 898.92016602 629.09033203 C897.71578524 604.43175076 886.67340598 582.7415241 869.06958008 565.77001953 C827.3412948 530.86270396 761.50576409 519.08525847 710.13684082 506.19371033 C542.2131939 464.05145366 542.2131939 464.05145366 477.78833008 418.39111328 C477.07676758 417.88708984 476.36520508 417.38306641 475.63208008 416.86376953 C466.3902668 410.28201764 457.49117856 403.59082385 449.27270508 395.75830078 C447.18795991 393.77189265 445.06411223 391.91691788 442.85083008 390.07861328 C423.89300436 373.56441583 409.33023081 352.07621611 398.78833008 329.39111328 C398.45833008 329.39111328 398.12833008 329.39111328 397.78833008 329.39111328 Z M1648.21020508 444.22705078 C1621.48048574 453.09998666 1594.39403887 460.36860564 1567.04223633 467.05908203 C1566.17907995 467.27029379 1565.31592358 467.48150555 1564.42661095 467.69911766 C1544.27622394 472.61391536 1524.01909614 477.01303576 1503.74404907 481.37884521 C1474.81164377 487.61200406 1445.88453506 493.87414995 1417.10083008 500.76611328 C1416.06536041 501.01084381 1415.02989075 501.25557434 1413.96304321 501.50772095 C1396.62526713 505.61924819 1378.66140768 509.93720747 1362.97583008 518.64111328 C1362.11602539 519.10582031 1361.2562207 519.57052734 1360.37036133 520.04931641 C1334.83623121 534.12339554 1310.45741041 553.4221936 1301.78833008 582.39111328 C1294.5739045 608.11288205 1295.72068916 635.93782996 1306.78833008 660.39111328 C1307.39741211 661.82390625 1307.39741211 661.82390625 1308.01879883 663.28564453 C1320.80780324 691.30144012 1346.81668879 712.47630827 1375.26879883 723.10986328 C1390.05411649 728.37275484 1405.22203366 731.50819863 1420.94848633 731.59423828 C1421.80723862 731.60129791 1422.66599091 731.60835754 1423.55076599 731.6156311 C1450.30765 731.82721882 1450.30765 731.82721882 1476.78833008 728.39111328 C1477.80668945 728.19243652 1478.82504883 727.99375977 1479.87426758 727.7890625 C1516.50944105 720.45873328 1550.93073884 705.9493671 1580.78833008 683.39111328 C1581.67262695 682.73240234 1582.55692383 682.07369141 1583.46801758 681.39501953 C1626.3860753 647.93458851 1644.36087165 601.30657611 1651.27709961 548.67138672 C1653.55435977 529.92759487 1654.95908642 511.27217789 1654.88598633 492.39111328 C1654.88411373 490.93424529 1654.88269383 489.47737666 1654.88169861 488.02050781 C1654.87793954 484.24611573 1654.86816857 480.47176414 1654.85699463 476.6973877 C1654.84663556 472.82186429 1654.84217043 468.94633413 1654.8371582 465.07080078 C1654.82653802 457.51088679 1654.80954465 449.95100578 1654.78833008 442.39111328 C1652.59053516 442.39111328 1650.25149136 443.54154419 1648.21020508 444.22705078 Z " fill="#FF7187" transform="translate(4859.211669921875,744.60888671875)"/>
<path d="M0 0 C36.36244994 28.09310775 50.92003743 76.16146959 56.97265625 120.08203125 C57.13634666 121.44980018 57.29357233 122.8183538 57.4453125 124.1875 C57.5366748 124.97415039 57.62803711 125.76080078 57.72216797 126.57128906 C58.58302521 134.80544224 58.68852471 143.04140854 58.6953125 151.3125 C58.69632462 152.42983017 58.69632462 152.42983017 58.69735718 153.56973267 C58.61333626 212.41499784 35.98247308 266.15870475 -1.5546875 311.1875 C-4.08572987 313.45211686 -5.3739948 314.20006056 -8.7578125 314.1640625 C-12.21315139 313.84082112 -15.25574329 313.28714807 -18.5546875 312.1875 C-20.441875 312.2803125 -20.441875 312.2803125 -22.3671875 312.375 C-26.75182165 312.44780758 -29.16080491 311.00193922 -32.5546875 308.1875 C-34.33691984 304.62303531 -34.15758024 301.07347203 -33.5546875 297.1875 C-30.69333161 290.4582243 -25.77292031 284.66943246 -21.51025391 278.77148438 C10.76834484 233.84753781 25.20678368 180.65896824 16.4140625 125.5859375 C11.39046513 96.84556329 3.60902199 61.54286479 -18.30859375 40.50390625 C-19.5546875 39.1875 -19.5546875 39.1875 -19.5546875 37.1875 C-20.13863281 36.91679687 -20.72257812 36.64609375 -21.32421875 36.3671875 C-23.5384294 35.19609886 -25.29879241 33.88514257 -27.2421875 32.3125 C-34.51835166 26.7499745 -42.35243676 23.60323011 -51.5546875 24.1875 C-65.23001047 26.73274939 -80.57546785 33.94342442 -88.875 45.38671875 C-91.0161759 48.86854752 -92.80127645 52.49936041 -94.5546875 56.1875 C-95.07417969 57.20972656 -95.59367187 58.23195313 -96.12890625 59.28515625 C-105.65677947 79.46624205 -109.02112557 102.52838566 -112.59658051 124.35097122 C-113.16921088 127.83039485 -113.755791 131.30747352 -114.34033203 134.78491211 C-115.2966605 140.48574135 -116.24358825 146.18805925 -117.18359375 151.89160156 C-118.26558859 158.45610999 -119.36533097 165.01748419 -120.47302246 171.57771301 C-124.46188482 195.22280485 -128.33346244 218.84375211 -130.97216797 242.68383789 C-131.10292725 243.81002785 -131.10292725 243.81002785 -131.23632812 244.95896912 C-131.46595819 246.94248075 -131.68252529 248.9274929 -131.89794922 250.91259766 C-132.76403538 255.23143773 -134.21733388 257.89134277 -137.36962891 260.9465332 C-145.63132956 265.63862532 -156.57570944 262.7341536 -165.1796875 260.5 C-174.74171513 258.19617978 -184.256595 256.28551211 -193.9921875 254.875 C-195.07387207 254.71620361 -196.15555664 254.55740723 -197.27001953 254.39379883 C-210.36159659 252.54947252 -223.29017967 251.94720216 -236.4921875 251.9375 C-237.32350189 251.93682526 -238.15481628 251.93615051 -239.01132202 251.93545532 C-264.32144866 251.96781696 -289.9966534 254.11878513 -314.37890625 261.31640625 C-320.81694408 263.0823133 -327.87666471 263.28963681 -334.1171875 260.6875 C-338.21583643 258.13672967 -339.36074398 254.71530074 -340.5546875 250.1875 C-341.16984746 246.53810931 -341.49807799 242.88627138 -341.80078125 239.19921875 C-341.94427505 237.62778107 -341.94427505 237.62778107 -342.09066772 236.02459717 C-342.29409209 233.79420536 -342.49305777 231.56340306 -342.68789673 229.33224487 C-343.19894388 223.52590657 -343.75624633 217.72402984 -344.3125 211.921875 C-344.47432518 210.22767677 -344.47432518 210.22767677 -344.63941956 208.49925232 C-349.80861252 154.86011723 -364.05217225 76.09331 -406.5546875 39.1875 C-415.06908281 32.18424737 -425.72599141 28.29834308 -436.8125 28.8125 C-455.29093502 31.33946547 -470.13737817 45.33294284 -481.89233398 58.99169922 C-484.76468782 62.78578799 -486.71704797 66.93266921 -488.6796875 71.25 C-489.10781738 72.17683594 -489.53594727 73.10367188 -489.97705078 74.05859375 C-497.80500237 91.29620274 -502.96011297 110.16111518 -503.5546875 129.1875 C-503.58046875 129.86554688 -503.60625 130.54359375 -503.6328125 131.2421875 C-505.52764023 187.51857122 -486.1378216 243.83004356 -458.33203125 292.0703125 C-455.3992743 297.213917 -453.42031447 301.09326189 -454.5546875 307.1875 C-456.4921875 310.1875 -456.4921875 310.1875 -459.5546875 312.1875 C-461.87848066 312.4354273 -464.06607167 312.37441182 -466.3984375 312.25390625 C-469.31494295 312.16408634 -471.13890818 312.52665172 -473.5546875 314.1875 C-473.94400783 316.17735949 -474.27356686 318.17949544 -474.5546875 320.1875 C-477.64362668 324.06411868 -481.59727846 325.88421351 -485.9921875 327.9375 C-498.55253264 334.03436714 -509.68732015 341.48471059 -520.5546875 350.1875 C-521.22113281 350.68636719 -521.88757812 351.18523437 -522.57421875 351.69921875 C-544.78679033 369.02190338 -555.01858838 401.65495885 -558.65844727 428.30541992 C-561.93566592 456.33139147 -557.37770709 485.39706029 -539.8671875 508.125 C-520.94536452 530.93829223 -495.6735867 543.33735154 -467.4921875 551.125 C-466.70674561 551.34889404 -465.92130371 551.57278809 -465.11206055 551.8034668 C-455.68103346 554.28063881 -448.820143 551.28068565 -440.1171875 547.625 C-389.77377607 527.08791543 -334.63006254 516.13525356 -280.21875 515.984375 C-279.51028301 515.98154762 -278.80181602 515.97872025 -278.07188034 515.97580719 C-274.30670576 515.96093664 -270.54156814 515.95163642 -266.77636719 515.94726562 C-263.74401514 515.94292692 -260.71195501 515.92919858 -257.6796875 515.90625 C-230.23608592 515.70314351 -203.19500711 517.20745848 -176.1171875 522 C-175.37639954 522.12755676 -174.63561157 522.25511353 -173.87237549 522.38653564 C-127.35270222 530.40708396 -79.61490195 544.88356387 -40.22070312 571.58178711 C-34.49035673 575.27876453 -30.28859169 575.89324987 -23.5546875 575.1875 C-22.54905762 575.0836499 -21.54342773 574.9797998 -20.50732422 574.87280273 C5.75835045 571.75348155 33.29289038 566.32611742 51.1328125 544.875 C52.58127538 542.98752932 54.01861851 541.0914786 55.4453125 539.1875 C56.23035156 538.21554687 57.01539062 537.24359375 57.82421875 536.2421875 C74.35404119 515.38247747 78.30717498 485.78024736 75.76855469 459.86083984 C71.45296202 424.16919355 48.71165199 391.75274648 21.4453125 369.1875 C20.53910156 368.3934375 19.63289063 367.599375 18.69921875 366.78125 C6.2877165 355.94180512 -7.13686241 346.42715431 -21.16113281 337.7890625 C-25.97308342 334.77547056 -28.89046604 332.53441582 -30.4921875 326.875 C-30.57584421 321.93925391 -29.43928003 320.16355997 -26.5546875 316.1875 C-23.20646841 313.53201589 -19.69680838 313.90183649 -15.5546875 314.1875 C-14.5853125 314.5175 -13.6159375 314.8475 -12.6171875 315.1875 C-9.49781508 316.40917364 -9.49781508 316.40917364 -5.81640625 315.9921875 C-1.17642354 315.94774018 1.94066376 317.7453567 5.6953125 320.3125 C6.37078125 320.75553467 7.04625 321.19856934 7.7421875 321.6550293 C9.99206956 323.14399676 12.21919758 324.6632583 14.4453125 326.1875 C15.64704102 326.99840088 15.64704102 326.99840088 16.87304688 327.82568359 C33.07618192 338.7789775 48.31804443 350.64762663 62.4453125 364.1875 C63.05874512 364.76838379 63.67217773 365.34926758 64.30419922 365.94775391 C97.02796664 397.07445306 118.04556453 435.7476051 119.40625 481.3671875 C119.98935229 518.47482469 108.48122962 550.09417583 83.4453125 577.1875 C82.28902344 578.48494141 82.28902344 578.48494141 81.109375 579.80859375 C75.10141012 586.25208024 68.03312003 590.83906967 60.4453125 595.1875 C59.0221875 596.00541016 59.0221875 596.00541016 57.5703125 596.83984375 C46.30856074 602.60843127 33.64609113 605.12647625 21.4453125 608.1875 C20.59662598 608.40083984 19.74793945 608.61417969 18.87353516 608.83398438 C17.0646625 609.28729605 15.25508922 609.73781126 13.4453125 610.1875 C14.07953125 610.74953125 14.71375 611.3115625 15.3671875 611.890625 C29.23489944 624.37922747 43.11372702 637.31606556 54.4453125 652.1875 C55.49091779 653.48514939 56.53935276 654.78052131 57.58984375 656.07421875 C113.0127444 724.90989654 141.03635671 818.01554364 132.8046875 905.90576172 C130.08983456 930.69723812 121.50956018 953.63644118 103.4453125 971.1875 C102.7234375 971.90421875 102.0015625 972.6209375 101.2578125 973.359375 C70.16298878 1001.12261046 15.30635943 1004.5754775 -24.16661072 1005.74290466 C-25.21787577 1005.7743907 -25.21787577 1005.7743907 -26.2903785 1005.80651283 C-44.79402416 1006.34710136 -63.29846927 1006.3236092 -81.8083657 1006.30356562 C-86.92644286 1006.29916675 -92.04451913 1006.30071409 -97.16259766 1006.3014679 C-105.98869192 1006.30198727 -114.81477867 1006.29890256 -123.64087105 1006.29323006 C-136.40125219 1006.28503442 -149.16162978 1006.28249166 -161.92201328 1006.28124207 C-182.63477847 1006.27906408 -203.34753969 1006.2724383 -224.06030273 1006.26293945 C-244.15730774 1006.25373269 -264.25431166 1006.2466679 -284.35131836 1006.24243164 C-285.59419963 1006.24216892 -286.8370809 1006.24190619 -288.11762524 1006.24163551 C-294.35402016 1006.24033029 -300.59041508 1006.23906662 -306.82681 1006.23782361 C-358.40277192 1006.22749009 -409.97872951 1006.20990627 -461.5546875 1006.1875 C-461.16537056 1011.07223167 -460.77107613 1015.9565292 -460.37251282 1020.84051514 C-460.23808507 1022.49592685 -460.10492905 1024.15144242 -459.97315979 1025.80706787 C-455.06749254 1087.36847373 -434.55434196 1144.11115768 -391.5546875 1189.1875 C-390.9153125 1189.89132812 -390.2759375 1190.59515625 -389.6171875 1191.3203125 C-379.47449803 1202.14219993 -366.41198304 1210.93168988 -353.5546875 1218.1875 C-352.8937207 1218.56970703 -352.23275391 1218.95191406 -351.55175781 1219.34570312 C-331.71230562 1230.74187457 -310.09212685 1238.27926221 -287.5546875 1242.1875 C-286.49540039 1242.37223877 -285.43611328 1242.55697754 -284.34472656 1242.74731445 C-273.08886177 1244.48319769 -261.92092495 1244.54291808 -250.5546875 1244.5 C-249.55645966 1244.49817719 -248.55823181 1244.49635437 -247.52975464 1244.49447632 C-233.01200325 1244.4497884 -218.82986074 1244.05608703 -204.5546875 1241.1875 C-203.67554687 1241.02121094 -202.79640625 1240.85492187 -201.890625 1240.68359375 C-162.79760046 1233.16570442 -129.42032357 1215.52235976 -97.5546875 1192.1875 C-96.87567383 1191.6939502 -96.19666016 1191.20040039 -95.49707031 1190.69189453 C-86.40159414 1184.0654369 -77.72454708 1177.09084755 -69.26367188 1169.67431641 C-67.56644136 1168.19772586 -65.85336161 1166.74229105 -64.1328125 1165.29296875 C-56.96348099 1159.24371835 -50.03398071 1152.98980824 -43.23486328 1146.52612305 C-39.4148052 1142.89889258 -35.5191955 1139.38913738 -31.54150391 1135.93579102 C-28.26629007 1133.05377992 -25.10121796 1130.05756877 -21.9296875 1127.0625 C-21.24310059 1126.41869385 -20.55651367 1125.7748877 -19.84912109 1125.11157227 C-16.46603522 1121.93900508 -13.09766381 1118.75322389 -9.7578125 1115.53515625 C1.70442307 1104.55965622 13.52602906 1096.89292384 29.4453125 1094.1875 C30.09371094 1094.07535156 30.74210937 1093.96320313 31.41015625 1093.84765625 C52.90908656 1090.83533012 77.24045193 1093.68982359 95.4453125 1106.1875 C109.26393547 1117.07859629 118.48602517 1131.2649413 121.1640625 1148.9296875 C124.81869306 1191.26249148 104.41610627 1229.65341241 77.7890625 1261.31640625 C64.30151338 1277.05583784 49.63617256 1291.38724619 33.10986328 1303.91259766 C31.50493347 1305.14183548 29.92567008 1306.40436373 28.34765625 1307.66796875 C10.38354381 1321.95295829 -9.94635191 1333.21566185 -30.55126953 1343.21240234 C-32.5151344 1344.16824883 -34.47037773 1345.1402693 -36.42578125 1346.11328125 C-94.18747246 1374.46629713 -160.92522464 1388.2275598 -225.09765625 1388.390625 C-225.86857416 1388.39345238 -226.63949207 1388.39627975 -227.43377113 1388.39919281 C-231.53308051 1388.41408099 -235.63235579 1388.42336946 -239.73168945 1388.42773438 C-243.0345393 1388.43206903 -246.33712052 1388.44577851 -249.63989258 1388.46875 C-326.60658291 1388.99282156 -404.8234073 1376.0290359 -473.64648438 1340.17626953 C-475.60284314 1339.16254729 -477.570016 1338.17241414 -479.5390625 1337.18359375 C-498.11427668 1327.74137727 -515.3114513 1316.20433997 -531.5546875 1303.1875 C-533.07449219 1301.98673828 -533.07449219 1301.98673828 -534.625 1300.76171875 C-540.56891351 1295.99473398 -546.19307474 1290.9308533 -551.7734375 1285.75 C-554.06255972 1283.6409211 -556.37943914 1281.58771288 -558.7421875 1279.5625 C-565.93090164 1273.31338957 -572.37324733 1266.41746849 -578.5546875 1259.1875 C-579.40417969 1258.22714844 -580.25367187 1257.26679687 -581.12890625 1256.27734375 C-638.82479994 1190.70531491 -668.74500533 1106.85989182 -680.8046875 912.4375 C-676.62550388 851.98146051 -663.65920831 792.50430611 -638.5546875 737.1875 C-638.15072754 736.28080566 -637.74676758 735.37411133 -637.33056641 734.43994141 C-621.42685928 698.8663732 -599.08256093 665.76984843 -572.4765625 637.33203125 C-569.86567155 634.53817369 -567.33115231 631.68308674 -564.8046875 628.8125 C-561.64212743 625.28785792 -558.37130808 622.1203779 -554.75 619.07421875 C-552.12502597 616.81823573 -549.63389068 614.43862439 -547.1171875 612.0625 C-535.21439027 601.00633722 -521.67911359 591.72038009 -508.5546875 582.1875 C-509.10181396 581.96723145 -509.64894043 581.74696289 -510.21264648 581.52001953 C-528.30363269 574.17179604 -544.46409666 565.62618784 -559.5546875 553.1875 C-560.32425781 552.55972656 -561.09382813 551.93195312 -561.88671875 551.28515625 C-580.12692041 535.904795 -591.30255984 514.85742854 -597.5546875 492.1875 C-597.85117188 491.23101563 -598.14765625 490.27453125 -598.453125 489.2890625 C-609.56919515 450.87808743 -599.99714598 405.35511912 -581.29296875 370.921875 C-576.8210637 363.04633168 -571.52011668 355.9990134 -565.5546875 349.1875 C-564.90886719 348.40890625 -564.26304687 347.6303125 -563.59765625 346.828125 C-545.44685571 325.38726082 -517.30784492 311.05261795 -489.5546875 308.1875 C-489.5546875 305.4910741 -490.87585644 304.18371867 -492.39868164 302.05273438 C-505.52864149 283.57519988 -515.09193367 262.51431154 -522.5546875 241.1875 C-522.89693359 240.21699707 -523.23917969 239.24649414 -523.59179688 238.24658203 C-543.0701896 182.25077106 -553.97310833 113.70813636 -527.73803711 57.97265625 C-515.90361176 33.78737317 -496.49827205 12.77595434 -471.0546875 2.875 C-452.53115731 -3.2451091 -435.07018064 -3.86771268 -417.3046875 4.875 C-410.73374783 8.25195007 -405.08141847 12.27040843 -399.5546875 17.1875 C-398.87277344 17.73921875 -398.19085937 18.2909375 -397.48828125 18.859375 C-346.40193173 60.84815543 -322.86813899 144.22817406 -316.10058594 207.22607422 C-315.17248656 216.85974576 -314.4196368 226.50436473 -314.5546875 236.1875 C-313.75933594 235.94515625 -312.96398438 235.7028125 -312.14453125 235.453125 C-302.53740668 232.78162512 -292.87126698 231.26319786 -282.9921875 230 C-281.70368896 229.83338867 -280.41519043 229.66677734 -279.08764648 229.49511719 C-238.79160331 224.51657389 -198.20381929 226.77541399 -158.5546875 235.1875 C-158.52383057 234.32543945 -158.49297363 233.46337891 -158.46118164 232.57519531 C-157.83362183 219.57062251 -155.93711732 206.80156369 -153.9921875 193.9375 C-153.81550537 192.75853149 -153.63882324 191.57956299 -153.45678711 190.36486816 C-131.10250896 41.56513369 -131.10250896 41.56513369 -79.65039062 2.6875 C-55.11676344 -15.02012381 -25.14529971 -17.84009031 0 0 Z M-387.359375 709.14453125 C-389.39627753 711.04008289 -391.48839303 712.83430818 -393.6171875 714.625 C-439.25776182 754.8105256 -455.02409017 822.42035658 -461.5546875 880.1875 C-461.5546875 881.1775 -461.5546875 882.1675 -461.5546875 883.1875 C-333.8446875 883.1875 -206.1346875 883.1875 -74.5546875 883.1875 C-74.5546875 874.53520515 -75.01848654 866.79305594 -76.1796875 858.3125 C-76.44700684 856.35715332 -76.44700684 856.35715332 -76.71972656 854.36230469 C-84.90822344 796.08133854 -105.46687338 737.58357985 -153.921875 700.8515625 C-175.46756445 684.87942393 -199.46121099 675.0446671 -225.5546875 669.1875 C-226.3492334 669.00525879 -227.1437793 668.82301758 -227.96240234 668.63525391 C-241.02435201 665.79938019 -254.31449895 665.87990266 -267.6171875 665.8125 C-268.50121246 665.8044635 -269.38523743 665.796427 -270.29605103 665.78814697 C-313.44148652 665.49109234 -355.51426989 679.45396295 -387.359375 709.14453125 Z " fill="#FF7187" transform="translate(3827.5546875,228.8125)"/>
<path d="M0 0 C1.2478125 0.36222656 2.495625 0.72445313 3.78125 1.09765625 C16.88606395 5.37411655 28.66360067 11.89495025 39 21 C39.83015625 21.68707031 40.6603125 22.37414062 41.515625 23.08203125 C66.98455898 44.76187535 77.24234049 79.75070252 80 112 C81.12475215 126.86725947 81.14176048 141.73237008 81.12698364 156.6335144 C81.12813787 159.18759214 81.12972741 161.7416697 81.13171089 164.29574692 C81.13529727 169.81855586 81.13522873 175.34135499 81.13266373 180.86416435 C81.12885921 189.07858678 81.13082654 197.29300104 81.13387203 205.50742342 C81.13912378 220.19132304 81.13868653 234.87521829 81.13579312 249.55911832 C81.13327053 262.4260208 81.1326241 275.29292169 81.13381577 288.15982437 C81.13393034 289.44361044 81.13393034 289.44361044 81.13404724 290.75333158 C81.13435862 294.22843901 81.13467703 297.70354643 81.135007 301.17865386 C81.13806368 333.76033891 81.13529751 366.3420212 81.1299101 398.92370583 C81.12517585 427.7740085 81.12558008 456.62430675 81.13037109 485.47460938 C81.13574788 517.96014795 81.13783582 550.44568408 81.13475883 582.93122303 C81.13443818 586.40780393 81.13412533 589.88438483 81.13381577 593.36096573 C81.13373669 594.21685094 81.13365761 595.07273614 81.13357614 595.95455727 C81.13244666 608.78498135 81.13375411 621.61540365 81.13629532 634.44582748 C81.13917941 649.0795431 81.13838822 663.71325369 81.13301457 678.3469687 C81.13036904 685.79350813 81.12920144 693.24003942 81.13266373 700.68657875 C81.17006883 786.62990789 81.17006883 786.62990789 78.6875 824.0625 C78.62341949 825.06255066 78.55933899 826.06260132 78.49331665 827.09295654 C73.12504959 910.26891404 53.01742396 995.20500656 -1 1061 C-1.62310059 1061.7731958 -1.62310059 1061.7731958 -2.25878906 1062.56201172 C-14.52552432 1077.72873838 -28.47312751 1092.16777488 -44 1104 C-45.0003125 1104.81726562 -46.000625 1105.63453125 -47.03125 1106.4765625 C-104.94200302 1153.70659366 -179.18962047 1177.00199057 -252.7734375 1183.6171875 C-253.49205082 1183.68186848 -254.21066414 1183.74654945 -254.95105362 1183.81319046 C-271.48576907 1185.26440684 -287.97340508 1185.47655853 -304.56232834 1185.38672256 C-306.92185349 1185.37476251 -309.28135212 1185.36782385 -311.64089966 1185.36190796 C-334.20266507 1185.29638051 -356.60029534 1184.95377554 -379 1182 C-380.37056431 1181.826335 -381.7411709 1181.65300342 -383.11181641 1181.47998047 C-421.59536692 1176.54603446 -459.45345269 1167.86281315 -495 1152 C-496.3293457 1151.41049561 -496.3293457 1151.41049561 -497.68554688 1150.80908203 C-521.90228836 1139.9640034 -544.1938368 1125.67770164 -564 1108 C-564.50337891 1107.55301758 -565.00675781 1107.10603516 -565.52539062 1106.64550781 C-576.90591215 1096.49945878 -587.54233457 1085.98391996 -597 1074 C-597.95501527 1072.83298275 -598.91216501 1071.66770997 -599.87109375 1070.50390625 C-615.00063687 1052.0538368 -627.78990894 1031.57080953 -638.03027344 1010.02050781 C-639.03061641 1007.93620811 -640.06348044 1005.87042341 -641.1015625 1003.8046875 C-672.93673669 939.67285689 -700.78374403 840.98455941 -677.50390625 771.02734375 C-668.53389007 746.08232919 -650.63468964 726.24392545 -626.8125 714.6875 C-613.55726894 708.53061531 -598.84370429 704.88835342 -584.22265625 704.796875 C-583.49364609 704.79117493 -582.76463593 704.78547485 -582.01353455 704.77960205 C-580.47477644 704.77020581 -578.93599871 704.76363962 -577.3972168 704.75976562 C-575.0997155 704.75015566 -572.80314783 704.71912199 -570.50585938 704.6875 C-555.54269729 704.57995413 -541.76491882 706.7772582 -528 713 C-526.60007812 713.62841797 -526.60007812 713.62841797 -525.171875 714.26953125 C-499.28506655 727.10199201 -485.01192497 756.35024266 -476.05078125 782.4609375 C-472.08876096 794.65963986 -469.2802967 807.2131082 -466.28320312 819.67529297 C-456.4379754 861.20117478 -456.4379754 861.20117478 -444 902 C-443.66548828 902.9787207 -443.33097656 903.95744141 -442.98632812 904.96582031 C-431.6005321 937.75824454 -409.92452971 969.4831283 -377.9375 985.046875 C-374.01833904 986.85662461 -370.0351669 988.46886524 -366 990 C-364.99195312 990.38800781 -363.98390625 990.77601563 -362.9453125 991.17578125 C-359.65578951 992.30573676 -356.3816968 993.18263968 -353 994 C-352.26072266 994.18191895 -351.52144531 994.36383789 -350.75976562 994.55126953 C-336.59556838 997.87328486 -322.60453628 998.39889488 -308.125 998.4375 C-307.2625769 998.44358276 -306.40015381 998.44966553 -305.51159668 998.45593262 C-272.21965597 998.60948301 -239.27713249 989.37647794 -214 967 C-213.29617188 966.42765625 -212.59234375 965.8553125 -211.8671875 965.265625 C-196.98731504 953.01161239 -187.01689387 935.2399088 -179 918 C-178.48953125 916.94167969 -177.9790625 915.88335938 -177.453125 914.79296875 C-149.5353691 853.92925899 -153.84872957 782.23295111 -153.84361418 716.92303175 C-153.8427664 708.93843032 -153.83602484 700.95383628 -153.82904707 692.96923824 C-153.81704894 679.13432441 -153.80834675 665.29941107 -153.80200893 651.46449358 C-153.79191642 629.50863767 -153.772634 607.55279696 -153.75046654 585.59695026 C-153.74194171 577.12276043 -153.73367347 568.64857034 -153.72536278 560.1743803 C-153.72443777 559.23329482 -153.72351276 558.29220933 -153.72255972 557.32260611 C-153.70062951 534.98484765 -153.6808074 512.64708755 -153.66210938 490.30932617 C-153.6612897 489.3334471 -153.66047002 488.35756803 -153.6596255 487.35211686 C-153.64052806 464.56860843 -153.62356315 441.7851001 -153.61126709 419.00158691 C-153.61073742 418.02041373 -153.61020775 417.03924055 -153.60966204 416.02833485 C-153.60540959 408.11754861 -153.60123375 400.20676233 -153.59707724 392.29597604 C-153.57986194 359.64314796 -153.5526362 326.99034103 -153.51391686 294.33753112 C-153.508456 289.72323242 -153.50312293 285.10893358 -153.49787521 280.49463463 C-153.49684083 279.58668998 -153.49580645 278.67874533 -153.49474073 277.74328721 C-153.47846083 263.17244952 -153.47288988 248.60162672 -153.47157755 234.0307808 C-153.47006977 219.38545545 -153.45786459 204.74017037 -153.43482114 190.0948628 C-153.42149247 181.40989199 -153.41639249 172.72500932 -153.4233675 164.0400306 C-153.4272137 158.22394769 -153.42006318 152.40794229 -153.40435172 146.59187958 C-153.39573447 143.28854212 -153.39323684 139.9855307 -153.40092559 136.68216953 C-153.47768428 100.44867228 -148.83205588 58.92174026 -123 31 C-122.3201001 30.25073242 -122.3201001 30.25073242 -121.62646484 29.48632812 C-91.64880311 -3.25230475 -41.98638565 -12.49937166 0 0 Z " fill="#FF7187" transform="translate(3030,432)"/>
<path d="M0 0 C0.98355469 0.44472656 1.96710937 0.88945313 2.98046875 1.34765625 C14.19869868 6.77481121 24.12855554 16.67262318 31 27 C31 27.66 31 28.32 31 29 C31.66 29 32.32 29 33 29 C33.22558594 28.29617187 33.45117188 27.59234375 33.68359375 26.8671875 C35.27483576 23.40139629 37.47804633 20.87084461 40.0625 18.125 C40.55854736 17.59616211 41.05459473 17.06732422 41.56567383 16.52246094 C50.09228029 7.58917355 59.71540647 1.86781105 71 -3 C72.00667725 -3.43481689 72.00667725 -3.43481689 73.03369141 -3.87841797 C87.42439747 -9.39655944 106.75713657 -7.87638967 120.80639648 -2.04223633 C140.8970541 7.09353321 156.21945285 23.30970707 164 44 C164.34417969 44.90580811 164.68835937 45.81161621 165.04296875 46.74487305 C168.11096276 55.61260842 168.71946586 63.9214875 168.625 73.1875 C168.62201904 73.91266815 168.61903809 74.6378363 168.6159668 75.38497925 C168.52887006 87.18610028 167.11143952 97.28616093 162 108 C161.41283481 109.343214 160.82691006 110.68697088 160.2421875 112.03125 C151.57381973 131.18073569 137.48210187 147.11448131 123.3125 162.375 C122.70688232 163.02927979 122.10126465 163.68355957 121.47729492 164.35766602 C117.77460481 168.29519268 113.91182996 171.92624367 109.81030273 175.44580078 C107.61660749 177.32915397 105.49876179 179.28841639 103.375 181.25 C97.72672047 186.34469623 91.77407273 191.00263183 85.75390625 195.64453125 C84.10071649 196.92216343 82.45552864 198.20934159 80.8125 199.5 C68.03527713 209.46623384 54.82442771 218.68149762 41 227.13671875 C38.21597084 228.70816234 38.21597084 228.70816234 37 230 C32.65754869 230.77199134 28.64322206 230.8561325 24.67578125 228.7890625 C23.0528978 227.6152962 21.45450494 226.40730151 19.875 225.17578125 C16.5090581 222.62845837 12.98406932 220.4927627 9.375 218.3125 C0.83905609 213.06434811 -7.09088196 207.13968186 -15 201 C-15.91676514 200.29375488 -15.91676514 200.29375488 -16.85205078 199.57324219 C-50.59885815 173.56368555 -84.32108668 143.65500575 -100 103 C-100.35231689 102.14615723 -100.70463379 101.29231445 -101.06762695 100.41259766 C-104.33947127 91.79540053 -104.754896 83.5857598 -104.6875 74.5 C-104.68613037 73.7528775 -104.68476074 73.005755 -104.68334961 72.23599243 C-104.6083423 59.47980553 -102.92444068 48.46838684 -97 37 C-96.6793457 36.36884277 -96.35869141 35.73768555 -96.02832031 35.08740234 C-86.03603873 16.04502678 -69.97772563 3.1932891 -50 -4 C-49.08758545 -4.3393457 -48.1751709 -4.67869141 -47.23510742 -5.02832031 C-32.19621263 -9.5453229 -13.774979 -7.1431927 0 0 Z " fill="#FF768B" transform="translate(2965,125)"/>
<path d="M0 0 C2.4375 2.5625 2.4375 2.5625 4 5 C4.35835937 5.55429687 4.71671875 6.10859375 5.0859375 6.6796875 C6.39875235 10.01221751 6.22585002 12.99594772 6.1875 16.5625 C6.1865332 17.57086914 6.1865332 17.57086914 6.18554688 18.59960938 C6.1581579 21.66413171 5.9757613 24.0727161 5 27 C5.66030987 28.66919534 6.32793774 30.33550171 7 32 C8.36018462 42.92443018 5.90646234 49.99361281 -0.6875 58.53125 C-3.26387073 61.79454096 -5.90365008 65.0037277 -8.546875 68.21289062 C-11.27246077 71.56492151 -13.82096417 75.04670034 -16.39453125 78.515625 C-19.16696254 82.24224129 -21.99739285 85.92403023 -24.82177734 89.61132812 C-30.41784557 96.92121647 -35.97357613 104.24257516 -41.28198242 111.7644043 C-44.70998924 116.61784861 -48.22078544 121.40722907 -51.75 126.1875 C-52.34167969 126.98929688 -52.93335937 127.79109375 -53.54296875 128.6171875 C-56.55356504 132.69417211 -59.56876088 136.76772757 -62.5859375 140.83984375 C-78.01954881 161.69125366 -92.64237917 183.06270329 -107.125 204.58203125 C-107.76236588 205.52864624 -108.39973175 206.47526123 -109.05641174 207.45056152 C-112.28893914 212.25152027 -115.5194055 217.05383748 -118.74584961 221.85888672 C-138.59837462 251.3886065 -138.59837462 251.3886065 -149.94921875 254.5234375 C-157.16798241 255.65108048 -166.64563721 255.74474921 -173.25 252.25 C-177.18561509 249.02995129 -180.66968989 245.73097605 -181.29980469 240.52124023 C-181.6813854 230.67416834 -178.9118227 222.97352217 -175.25 214.0625 C-174.65072401 212.5560618 -174.05351241 211.04880091 -173.45825195 209.54077148 C-171.94782681 205.72936793 -170.41267195 201.92857818 -168.86700439 198.13134766 C-166.6231911 192.61540537 -164.40894847 187.08747457 -162.1875 181.5625 C-161.70474609 180.36810303 -161.22199219 179.17370605 -160.72460938 177.94311523 C-156.35317988 167.0822355 -152.29886161 156.10940147 -148.25 145.125 C-142.72904209 130.1496596 -136.99265028 115.28365309 -131.00915527 100.48727417 C-124.98779294 85.59247169 -119.22291255 70.6095464 -113.578125 55.56811523 C-110.44627874 47.24651728 -107.22147835 38.97694683 -103.78125 30.77734375 C-103.46216675 30.0150798 -103.1430835 29.25281586 -102.81433105 28.467453 C-91.20345041 1.09460153 -91.20345041 1.09460153 -80.4375 -4 C-73.04665096 -6.15006517 -65.58818405 -6.28956276 -57.9375 -6.5625 C-56.22397339 -6.62401245 -56.22397339 -6.62401245 -54.47583008 -6.68676758 C-10.81743749 -8.14819967 -10.81743749 -8.14819967 0 0 Z " fill="#FF7187" transform="translate(6852,482)"/>
<path d="M0 0 C10.01437133 8.48130708 14.37061553 22.66630125 18.19726562 34.77563477 C18.83181638 36.77666615 19.48708719 38.77006081 20.14453125 40.76367188 C27.91340579 64.73186906 27.91340579 64.73186906 22.58203125 75.33984375 C18.59782709 82.33807248 12.48249795 85.28175041 5.26879883 88.19970703 C0.30165408 90.36470521 -1.46874648 92.50382063 -3.5871582 97.46728516 C-6.66052277 104.39432195 -14.34694669 107.41750572 -20.92382812 110.07006836 C-27.305687 112.38924444 -33.85337625 114.07005319 -40.41796875 115.77734375 C-42.85619847 116.42057943 -45.29375154 117.06634232 -47.73132324 117.71206665 C-49.48144977 118.17534634 -51.23186411 118.63753997 -52.98254395 119.09872437 C-59.94290576 120.93568087 -66.88498015 122.83497291 -73.82421875 124.75 C-126.15820843 139.1550972 -180.94369273 154.22543966 -235.60546875 154.71484375 C-236.66258057 154.7288623 -237.71969238 154.74288086 -238.80883789 154.75732422 C-245.49765885 154.71524598 -252.61919574 154.34338158 -258.07519531 150.02954102 C-260.34004975 147.60847615 -261.37165243 145.58686415 -261.98046875 142.33984375 C-260.52032965 134.55243521 -254.47673245 130.68771729 -248.41796875 126.33984375 C-244.23132523 123.60874755 -239.95809635 121.02891115 -235.66796875 118.46484375 C-234.43976412 117.72522922 -233.2117407 116.9853137 -231.98388672 116.24511719 C-220.20838881 109.16101412 -208.34704254 102.22229864 -196.47721863 95.29785156 C-191.04704358 92.12801079 -185.63810576 88.92291535 -180.23046875 85.71484375 C-168.02113886 78.48332901 -155.72395232 71.40525637 -143.41796875 64.33984375 C-142.49628906 63.81003906 -141.57460938 63.28023437 -140.625 62.734375 C-129.40807018 56.28919671 -118.1474394 49.92535119 -106.85083008 43.62084961 C-101.7767795 40.78783479 -96.71062466 37.943275 -91.66796875 35.0546875 C-80.32183842 28.56374151 -68.85726278 22.39633989 -57.21484375 16.45166016 C-50.34376751 12.92388617 -43.66292104 9.19073826 -37.04296875 5.21484375 C-25.86933439 -1.40735672 -12.25585702 -8.0653298 0 0 Z " fill="#FF7187" transform="translate(7013.41796875,648.66015625)"/>
<path d="M0 0 C4.35834637 5.30638546 5.80596429 12.06045202 7.54296875 18.57421875 C7.80883789 19.4727356 7.80883789 19.4727356 8.08007812 20.3894043 C9.13674155 25.37678881 8.77132012 30.62261572 8.79296875 35.69921875 C8.82390625 37.478125 8.82390625 37.478125 8.85546875 39.29296875 C8.89699569 48.69882067 7.9536293 57.47906747 2 65.10546875 C-2.06261118 69.20075509 -7.1833203 71.44932723 -12.92724609 71.66845703 C-14.28390381 71.65661377 -14.28390381 71.65661377 -15.66796875 71.64453125 C-17.16457031 71.66 -17.16457031 71.66 -18.69140625 71.67578125 C-20.7773003 71.69134762 -22.86350243 71.68370791 -24.94921875 71.65234375 C-30.56510633 71.63996664 -30.56510633 71.63996664 -35.39746094 74.12231445 C-36.97877807 75.9561726 -36.97877807 75.9561726 -38.21142578 77.88452148 C-40.59661364 81.12009286 -43.64164955 81.83127917 -47.45703125 82.57421875 C-57.13463224 83.15098205 -66.37142974 82.09117601 -75.890625 80.44921875 C-77.24401268 80.22372289 -78.59754266 79.99907972 -79.95120239 79.77522278 C-83.53076664 79.17971486 -87.10756127 78.56900834 -90.68376541 77.95367813 C-92.9108931 77.57141038 -95.13866053 77.19310931 -97.3666687 76.81600952 C-247.24418931 51.43046843 -247.24418931 51.43046843 -276.45703125 25.57421875 C-278.81789247 22.03292691 -279.02972703 20.74671657 -278.45703125 16.57421875 C-272.92881185 8.28188966 -264.58108985 6.36853654 -255.24609375 4.48046875 C-247.00186475 3.04160367 -238.64393234 2.72883991 -230.29956055 2.29272461 C-228.88459397 2.21875713 -227.46963635 2.14461825 -226.0546875 2.0703125 C-225.34477158 2.03308578 -224.63485565 1.99585907 -223.90342712 1.95750427 C-217.68597085 1.61692116 -211.49801367 1.0768991 -205.29949951 0.48936462 C-192.06333853 -0.76151887 -178.84190791 -1.7682557 -165.5625 -2.42578125 C-164.73790913 -2.46746933 -163.91331825 -2.50915741 -163.06373978 -2.55210876 C-141.58227141 -3.63330057 -120.08743087 -4.31986584 -98.59069824 -5.01434326 C-93.13014127 -5.19098045 -87.66968115 -5.37018503 -82.20935822 -5.55392456 C-80.41854198 -5.61407342 -78.62770432 -5.67358816 -76.8368454 -5.73245239 C-67.20363405 -6.05168059 -57.5826813 -6.44567208 -47.96191406 -7.03515625 C-47.1176568 -7.08587532 -46.27339954 -7.13659439 -45.40355873 -7.1888504 C-41.42923487 -7.42927721 -37.45687033 -7.68409667 -33.48532104 -7.9666748 C-21.31345649 -8.77244586 -9.23732509 -9.03920551 0 0 Z " fill="#FF7187" transform="translate(7073.45703125,880.42578125)"/>
<path d="M0 0 C10.68434232 5.14908064 16.0294445 20.94628743 21 31 C30.33334752 31.16890106 39.42847401 30.5191741 48.703125 29.53515625 C49.71890625 29.43847656 50.7346875 29.34179688 51.78125 29.2421875 C52.68939453 29.1479248 53.59753906 29.05366211 54.53320312 28.95654297 C57.27264662 29.00480316 58.71508721 29.52024083 61 31 C61.9765625 32.734375 61.9765625 32.734375 62.625 34.75 C62.85832031 35.46285156 63.09164062 36.17570313 63.33203125 36.91015625 C63.55246094 37.59980469 63.77289062 38.28945313 64 39 C64.433125 40.051875 64.86625 41.10375 65.3125 42.1875 C66.16327038 45.66792428 65.69530152 46.88618089 64 50 C54.20761686 56.00236818 40.79548256 56.14921733 29.625 56.375 C28.88822021 56.40110352 28.15144043 56.42720703 27.39233398 56.45410156 C21.81714397 56.47169883 17.62573037 55.14386621 13 52 C7.80768503 46.8271319 4.37089583 39.56037348 0.6015625 33.30859375 C0.03953125 32.38691406 -0.5225 31.46523438 -1.1015625 30.515625 C-1.86460693 29.25153809 -1.86460693 29.25153809 -2.64306641 27.96191406 C-3.85639116 25.87129198 -3.85639116 25.87129198 -6 25 C-6.26683594 25.71800781 -6.53367187 26.43601562 -6.80859375 27.17578125 C-11.40783709 38.07824988 -19.86052626 50.01380215 -30.765625 55.203125 C-34.83713388 56.65520159 -37.78079797 57.23279809 -42 56 C-51.55182236 50.78878442 -59.90081325 43.20190075 -68 36 C-68.60972656 35.47148438 -69.21945313 34.94296875 -69.84765625 34.3984375 C-71.93433848 31.86612483 -71.27730776 29.10584696 -71 26 C-70.01 24.515 -70.01 24.515 -69 23 C-68.34 23 -67.68 23 -67 23 C-66.87625 22.05125 -66.7525 21.1025 -66.625 20.125 C-66 17 -66 17 -64 15 C-60.85429281 14.52014636 -59.01735076 14.2913378 -56 15 C-54.09069928 16.43759113 -52.64611255 18.05434339 -51.05859375 19.83984375 C-48.51636343 22.5074972 -45.72851592 24.76277268 -42.8125 27 C-41.80832031 27.78375 -40.80414062 28.5675 -39.76953125 29.375 C-37.23999336 31.15674842 -37.23999336 31.15674842 -34.94921875 31.0625 C-30.07298229 28.40451139 -26.86614576 23.69448227 -23.625 19.3125 C-22.85027344 18.26835938 -22.07554687 17.22421875 -21.27734375 16.1484375 C-18.64098132 12.50365514 -16.09634912 8.80413978 -13.60546875 5.05859375 C-9.90433545 0.31285835 -5.98056672 -1.40203762 0 0 Z " fill="#FF7187" transform="translate(3576,628)"/>
<path d="M0 0 C3.06471302 1.65023009 5.30778907 3.056076 7.375 5.875 C8.18756857 8.63773314 8.13010404 11.13771112 8 14 C8.598125 14.0825 9.19625 14.165 9.8125 14.25 C12.75372632 15.25842045 13.49909282 16.28407273 15 19 C16.51945867 24.96930193 16.51945867 24.96930193 14.765625 28.44921875 C5.14278263 42.35124544 -12.31112352 45.10692263 -28 48 C-29.99696673 48.13808812 -31.99849908 48.21936478 -34 48.25 C-35.010625 48.27578125 -36.02125 48.3015625 -37.0625 48.328125 C-41.2209498 47.86361731 -43.8248406 46.1751594 -46.75 43.25 C-49.1338301 38.95910581 -49.326044 35.35433662 -48.1875 30.625 C-41.78688501 17.96413438 -14.30607601 -1.24400661 0 0 Z " fill="#FF7187" transform="translate(3466,569)"/>
<path d="M0 0 C0.66 -0.33 1.32 -0.66 2 -1 C8.4540442 -1.5395664 12.20313609 -0.44480799 17.6875 2.875 C18.37231445 3.27630127 19.05712891 3.67760254 19.76269531 4.09106445 C37.93275729 14.98763126 37.93275729 14.98763126 43 24 C43.91696928 27.79435563 43.88855799 31.42617034 41.94140625 34.875 C40.18309324 37.04549915 38.51188447 38.74405776 36 40 C27.44217367 40.8816075 20.89385443 38.04890589 13.0625 34.8125 C11.85142578 34.32974609 10.64035156 33.84699219 9.39257812 33.34960938 C-10.6440958 25.2676808 -10.6440958 25.2676808 -13 20 C-14.32467746 19.3162955 -15.65863633 18.65035814 -17 18 C-19.82224714 15.37934195 -20.0019191 13.9798494 -20.375 10.0625 C-20.22181428 6.32337578 -19.42479257 3.94439098 -17 1 C-12.23962945 -2.70251043 -5.47473146 -1.12715059 0 0 Z " fill="#FF7187" transform="translate(3690,586)"/>
</svg>
